<svg id="icons" enable-background="new 0 0 64 64" height="512" viewBox="0 0 64 64" width="512" xmlns="http://www.w3.org/2000/svg"><path d="m55 39c2.757 0 5-2.243 5-5s-2.243-5-5-5-5 2.243-5 5 2.243 5 5 5zm0-8c1.654 0 3 1.346 3 3s-1.346 3-3 3-3-1.346-3-3 1.346-3 3-3z"/><path d="m18 38h27.998c.553 0 1-.447 1-1v-6c0-.553-.447-1-1-1h-27.998c-.553 0-1 .447-1 1v6c0 .553.447 1 1 1zm1-6h25.998v4h-25.998z"/><path d="m6.5 35.001c1.379 0 2.5-1.121 2.5-2.5s-1.121-2.5-2.5-2.5-2.5 1.121-2.5 2.5 1.121 2.5 2.5 2.5zm0-3c.275 0 .5.225.5.5s-.225.5-.5.5-.5-.225-.5-.5.225-.5.5-.5z"/><path d="m12.5 35.001c1.379 0 2.5-1.121 2.5-2.5s-1.121-2.5-2.5-2.5-2.5 1.121-2.5 2.5 1.121 2.5 2.5 2.5zm0-3c.275 0 .5.225.5.5s-.225.5-.5.5-.5-.225-.5-.5.225-.5.5-.5z"/><path d="m5 38h9c.553 0 1-.447 1-1s-.447-1-1-1h-9c-.553 0-1 .447-1 1s.447 1 1 1z"/><path d="m63.951 25.755c-.015-.057-.021-.116-.045-.169-.022-.051-.062-.092-.093-.139-.043-.062-.081-.125-.136-.176-.008-.008-.011-.019-.02-.026l-8-6.998c-.038-.033-.084-.046-.126-.072-.059-.038-.114-.079-.182-.104-.072-.027-.146-.034-.223-.045-.042-.006-.08-.026-.126-.026h-46c-.045 0-.084.02-.127.025-.076.01-.151.018-.225.046-.066.024-.121.065-.18.103-.042.027-.089.04-.127.073l-8 6.998c-.009.008-.012.019-.02.026-.055.051-.093.113-.135.176-.032.047-.071.088-.094.139-.023.053-.03.111-.045.169-.018.07-.04.139-.042.211.001.012-.005.02-.005.032v16.002c0 .553.447 1 1 1h1v2c0 .553.447 1 1 1h14c.553 0 1-.447 1-1v-2h28v2c0 .553.447 1 1 1h14c.553 0 1-.447 1-1v-2h1c.553 0 1-.447 1-1v-16.002c0-.012-.006-.021-.007-.032-.002-.072-.024-.141-.042-.211zm-54.575-5.755h45.248l5.714 4.998h-56.676zm6.624 24h-12v-1h12zm44 0h-12v-1h12zm2-3h-60v-14.002h60z"/></svg>